<svg xmlns="http://www.w3.org/2000/svg" width="110" height="32" viewBox="0 0 110 32" fill="none">
<path d="M27.2208 2.08131C28.0632 1.50979 29.0154 1.19775 30.4589 1.02009C30.9135 0.964149 32.5755 1.03288 33.1107 1.1298C34.6525 1.40895 36.0232 2.04974 36.8588 2.88202L37.2571 3.27877V5.05133V6.82385H36.9456H36.6341L36.5819 6.6155C36.1042 4.70885 35.0686 3.32137 33.5694 2.57984C31.616 1.61357 29.0061 2.0991 27.985 3.61875C27.6544 4.11061 27.508 4.57222 27.4804 5.20958C27.4469 5.98407 27.5822 6.48852 27.9951 7.12814C28.5651 8.01116 29.6044 8.81359 31.4874 9.82481C33 10.637 33.8666 11.1247 34.3955 11.4613C36.5868 12.8561 37.7957 14.196 38.2246 15.7052C38.4346 16.4446 38.4009 17.6705 38.1455 18.5789C37.8992 19.4547 37.5097 20.1382 36.872 20.8135C36.0967 21.6343 35.0725 22.2084 33.7596 22.558C33.1535 22.7195 33.0959 22.6979 33.4418 22.4389C34.6863 21.5074 35.758 19.9477 36.0128 18.697C36.2531 17.5179 35.9623 16.2179 35.2432 15.256C34.9624 14.8804 34.4668 14.3959 33.8328 13.8771C33.0113 13.2049 32.2592 12.7305 30.0732 11.5058C27.1688 9.87864 25.7533 8.5141 25.3178 6.9219C25.1786 6.41263 25.2007 5.32656 25.3631 4.70268C25.493 4.20342 25.7753 3.57341 26.0243 3.22686C26.287 2.86119 26.8117 2.35883 27.2208 2.08131Z" fill="white"/>
<path d="M61.4125 5.79434V5.45117V5.10801H63.1906H64.9687L70.3625 13.1988L75.7563 21.2897L75.7708 14.2161C75.786 6.85208 75.7854 6.82968 75.5853 6.42832C75.3903 6.03731 74.9906 5.79522 74.5388 5.79464L74.3339 5.79434V5.45117V5.10801H76.383H78.4321V5.45117V5.79434H78.2213C77.7302 5.79434 77.3113 6.09148 77.118 6.57672L77.0098 6.84836L76.9972 16.6409L76.9846 26.4335H76.7235H76.4625L70.3037 17.3027C66.9165 12.2809 64.1264 8.15064 64.1037 8.12446C64.0807 8.09803 64.0681 11.755 64.0754 16.3605L64.0884 24.6441L64.2006 24.9268C64.2624 25.0822 64.37 25.2784 64.4397 25.3627C64.6117 25.5705 64.9967 25.7461 65.2817 25.7466L65.5107 25.7471V26.0903V26.4335H63.4616H61.4125V26.097V25.7606L61.724 25.7351C62.2732 25.6903 62.619 25.3911 62.7827 24.819C62.8509 24.5807 62.8589 23.6296 62.8589 15.7462C62.8589 6.06839 62.8775 6.67555 62.5672 6.23997C62.3772 5.97323 62.0172 5.79547 61.6656 5.79483L61.4125 5.79434Z" fill="white"/>
<path d="M84.5071 8.88286V6.99543V5.10801H91.1125C95.2476 5.10801 97.7179 5.12541 97.7179 5.15453C97.7179 5.18012 95.3867 9.68607 92.5375 15.1677C89.6883 20.6494 87.3425 25.1737 87.3246 25.2217C87.2935 25.3051 87.4481 25.3084 90.709 25.2952C94.1221 25.2814 94.1262 25.2813 94.39 25.1716C95.2537 24.8124 95.8679 24.0008 96.3171 22.6253C96.6016 21.754 96.8354 20.4371 96.927 19.1902L96.9603 18.7367H97.2908H97.6214V22.5851V26.4335H90.8433C87.1151 26.4335 84.0724 26.4146 84.0813 26.3916C84.0901 26.3686 86.5002 21.8388 89.4371 16.3254C92.3739 10.812 94.7768 6.28635 94.7768 6.26831C94.7768 6.25031 93.0325 6.23556 90.9006 6.23556C87.1555 6.23556 87.0141 6.23889 86.718 6.33385C85.9533 6.57912 85.497 7.21393 85.2294 8.40487L85.122 8.88286H84.8146H84.5071Z" fill="white"/>
<path d="M103.793 5.79434V5.45117V5.10801H106.396H109V5.45117V5.79434L108.747 5.79483C108.461 5.79537 108.076 5.95495 107.906 6.14388C107.746 6.31993 107.612 6.66599 107.554 7.04715C107.519 7.28144 107.507 10.0708 107.516 15.9913C107.529 24.0174 107.535 24.6118 107.613 24.8444C107.806 25.416 108.22 25.7457 108.747 25.7466L109 25.7471V26.0903V26.4335H106.396H103.793V26.0903V25.7471L104.046 25.7466C104.356 25.7461 104.733 25.5789 104.912 25.3627C104.982 25.2784 105.089 25.0822 105.151 24.9268L105.263 24.6441V15.7707V6.89738L105.151 6.61471C105.089 6.45926 104.982 6.26311 104.912 6.17879C104.733 5.96255 104.356 5.79542 104.046 5.79483L103.793 5.79434Z" fill="white"/>
<path d="M1.02411 6.26007L1.00969 5.92298C0.997107 5.62815 1.00516 5.58977 1.07391 5.61658C1.11716 5.63345 4.49201 5.64727 8.5736 5.64727H15.9946V7.63563C15.9946 8.72921 15.9764 9.61253 15.954 9.59851C15.9317 9.58449 15.6786 9.18058 15.3915 8.70093C14.7442 7.61936 14.4714 7.32056 13.9942 7.17074C13.6772 7.07118 13.5828 7.06897 9.64342 7.06897H5.61662L5.64318 9.58145C5.65779 10.9633 5.69347 12.2704 5.72245 12.4861C5.79491 13.0261 5.98796 13.6965 6.17296 14.051C6.50193 14.6813 7.1992 15.2713 7.99912 15.5961L8.36873 15.7462H11.0728H13.7768V16.1384V16.5306H11.1021H8.42751L8.05259 16.6808C7.27374 16.9929 6.69849 17.4319 6.33703 17.9903C5.74221 18.909 5.62978 19.7536 5.629 23.3082L5.62857 25.2569H9.55148C12.0035 25.2569 13.5711 25.2382 13.7324 25.2071C14.4018 25.0781 14.6363 24.8546 15.3478 23.667C15.6638 23.1397 15.9386 22.7081 15.9585 22.7079C15.9784 22.7078 15.9946 23.6011 15.9946 24.6931V26.6786H8.49732H1V26.3621V26.0457L1.1567 26.0198C2.06679 25.8692 2.31982 25.7912 2.64329 25.5613C2.98185 25.3209 3.19192 25.0317 3.32017 24.6298C3.41771 24.324 3.42749 24.1652 3.4596 22.3645C3.49273 20.5111 3.49938 20.408 3.61553 19.9618C3.68221 19.7053 3.80241 19.3484 3.88254 19.1687C4.4505 17.8951 5.63161 16.824 7.08662 16.263C7.33107 16.1688 7.37007 16.1398 7.29196 16.1103C6.24923 15.7165 5.53962 15.2745 4.90246 14.6219C4.22173 13.9246 3.80197 13.1501 3.57247 12.1675C3.51611 11.9262 3.48887 11.3784 3.46038 9.91236C3.43516 8.61401 3.4031 7.9113 3.36308 7.77982C3.09617 6.90297 2.43654 6.41425 1.36161 6.29693L1.02411 6.26007Z" fill="white"/>
<path d="M41.283 6.25507L41.2691 5.93891L41.2551 5.62276L48.7302 5.63531L56.2054 5.6479V7.64285C56.2054 8.7401 56.187 9.61689 56.1647 9.59125C56.1423 9.56566 55.8705 9.1218 55.5607 8.60494C54.9636 7.60858 54.8086 7.42758 54.3754 7.22099L54.108 7.09348L50.0055 7.08015L45.9031 7.06686L45.8728 8.4038C45.8402 9.84535 45.8986 12.0857 45.9832 12.6363C46.1317 13.6028 46.407 14.2182 46.925 14.7412C47.295 15.1148 47.6009 15.3178 48.1847 15.5769L48.5634 15.745L51.2996 15.7456L54.0357 15.7462V15.9852C54.0357 16.1167 54.0222 16.2931 54.0056 16.3774L53.9754 16.5306H51.3308H48.6861L48.3685 16.6522C47.5714 16.9572 46.9164 17.4501 46.5384 18.029C46.3122 18.3756 46.1008 18.9644 46.0066 19.5102C45.9044 20.1029 45.8377 22.3111 45.8733 23.921L45.903 25.2569H49.794C52.2061 25.2569 53.7824 25.2381 53.9412 25.2075C54.2909 25.1401 54.6522 24.962 54.8588 24.7551C54.9536 24.6604 55.2861 24.1609 55.5977 23.6452C55.9094 23.1295 56.1736 22.7076 56.1849 22.7076C56.1962 22.7076 56.2054 23.6011 56.2054 24.6931V26.6786H48.7321H41.2589V26.3652C41.2589 26.0283 41.2854 25.9931 41.5401 25.9914C41.7706 25.9899 42.3219 25.8513 42.5853 25.7287C42.8911 25.5863 43.246 25.2666 43.4058 24.9894C43.628 24.6038 43.6681 24.268 43.6694 22.7812C43.6713 20.5999 43.768 19.9139 44.2024 18.9973C44.7784 17.782 46.01 16.7195 47.3995 16.2392L47.634 16.1582L47.279 16.0184C45.9307 15.4873 44.805 14.5175 44.2602 13.4176C43.7663 12.4205 43.7164 12.1096 43.6736 9.76529C43.6407 7.96375 43.6342 7.86497 43.5298 7.59441C43.2471 6.86135 42.6678 6.45779 41.6933 6.31513L41.283 6.25507Z" fill="white"/>
<path d="M19.8492 12.8539C20.1828 11.5573 20.9953 10.5605 22.2351 9.92653C23.2348 9.41534 24.3066 9.20002 25.4205 9.17788C23.9571 9.89703 22.5733 10.7099 22.062 12.3657C21.8673 12.9962 21.875 13.8096 22.0801 14.4362C22.4535 15.5769 23.3761 16.4951 25.2277 17.5686C25.4398 17.6916 26.0799 18.0407 26.65 18.3444C29.0802 19.6391 30.2903 20.4691 31.3051 21.5374C32.7515 23.0602 33.163 24.6134 32.6572 26.6409C32.0833 28.9411 30.0475 30.5342 27.1869 30.9214C24.2126 31.3239 21.5161 30.1498 19.3696 28.1096V23.0508H19.9919C20.106 23.4687 20.1933 23.8908 20.3116 24.3098C20.8334 26.1585 21.5113 27.4739 22.4313 28.4227C23.0604 29.0716 23.6273 29.4329 24.41 29.6838C25.1507 29.9212 25.9041 29.9703 26.7794 29.8382C29.2755 29.4613 30.6516 28.036 30.5398 25.9432C30.5061 25.3124 30.374 24.7733 30.1217 24.2365C29.4541 22.8167 28.1751 21.6847 25.6405 20.2708C25.1748 20.011 24.49 19.6233 24.1188 19.4094C21.5164 17.9094 20.1806 16.5499 19.7983 15.0126C19.6626 14.4671 19.6856 13.4894 19.8492 12.8539Z" fill="white"/>
<path d="M27.2208 2.08131C28.0632 1.50979 29.0154 1.19775 30.4589 1.02009C30.9135 0.964149 32.5755 1.03288 33.1107 1.1298C34.6525 1.40895 36.0232 2.04974 36.8588 2.88202L37.2571 3.27877V5.05133V6.82385H36.9456H36.6341L36.5819 6.6155C36.1042 4.70885 35.0686 3.32137 33.5694 2.57984C31.616 1.61357 29.0061 2.0991 27.985 3.61875C27.6544 4.11061 27.508 4.57222 27.4804 5.20958C27.4469 5.98407 27.5822 6.48852 27.9951 7.12814C28.5651 8.01116 29.6044 8.81359 31.4874 9.82481C33 10.637 33.8666 11.1247 34.3955 11.4613C36.5868 12.8561 37.7957 14.196 38.2246 15.7052C38.4346 16.4446 38.4009 17.6705 38.1455 18.5789C37.8992 19.4547 37.5097 20.1382 36.872 20.8135C36.0967 21.6343 35.0725 22.2084 33.7596 22.558C33.1535 22.7195 33.0959 22.6979 33.4418 22.4389C34.6863 21.5074 35.758 19.9477 36.0128 18.697C36.2531 17.5179 35.9623 16.2179 35.2432 15.256C34.9624 14.8804 34.4668 14.3959 33.8328 13.8771C33.0113 13.2049 32.2592 12.7305 30.0732 11.5058C27.1688 9.87864 25.7533 8.5141 25.3178 6.9219C25.1786 6.41263 25.2007 5.32656 25.3631 4.70268C25.493 4.20342 25.7753 3.57341 26.0243 3.22686C26.287 2.86119 26.8117 2.35883 27.2208 2.08131Z" stroke="white" stroke-width="0.25"/>
<path d="M61.4125 5.79434V5.45117V5.10801H63.1906H64.9687L70.3625 13.1988L75.7563 21.2897L75.7708 14.2161C75.786 6.85208 75.7854 6.82968 75.5853 6.42832C75.3903 6.03731 74.9906 5.79522 74.5388 5.79464L74.3339 5.79434V5.45117V5.10801H76.383H78.4321V5.45117V5.79434H78.2213C77.7302 5.79434 77.3113 6.09148 77.118 6.57672L77.0098 6.84836L76.9972 16.6409L76.9846 26.4335H76.7235H76.4625L70.3037 17.3027C66.9165 12.2809 64.1264 8.15064 64.1037 8.12446C64.0807 8.09803 64.0681 11.755 64.0754 16.3605L64.0884 24.6441L64.2006 24.9268C64.2624 25.0822 64.37 25.2784 64.4397 25.3627C64.6117 25.5705 64.9967 25.7461 65.2817 25.7466L65.5107 25.7471V26.0903V26.4335H63.4616H61.4125V26.097V25.7606L61.724 25.7351C62.2732 25.6903 62.619 25.3911 62.7827 24.819C62.8509 24.5807 62.8589 23.6296 62.8589 15.7462C62.8589 6.06839 62.8775 6.67555 62.5672 6.23997C62.3772 5.97323 62.0172 5.79547 61.6656 5.79483L61.4125 5.79434Z" stroke="white" stroke-width="0.25"/>
<path d="M84.5071 8.88286V6.99543V5.10801H91.1125C95.2476 5.10801 97.7179 5.12541 97.7179 5.15453C97.7179 5.18012 95.3867 9.68607 92.5375 15.1677C89.6883 20.6494 87.3425 25.1737 87.3246 25.2217C87.2935 25.3051 87.4481 25.3084 90.709 25.2952C94.1221 25.2814 94.1262 25.2813 94.39 25.1716C95.2537 24.8124 95.8679 24.0008 96.3171 22.6253C96.6016 21.754 96.8354 20.4371 96.927 19.1902L96.9603 18.7367H97.2908H97.6214V22.5851V26.4335H90.8433C87.1151 26.4335 84.0724 26.4146 84.0813 26.3916C84.0901 26.3686 86.5002 21.8388 89.4371 16.3254C92.3739 10.812 94.7768 6.28635 94.7768 6.26831C94.7768 6.25031 93.0325 6.23556 90.9006 6.23556C87.1555 6.23556 87.0141 6.23889 86.718 6.33385C85.9533 6.57912 85.497 7.21393 85.2294 8.40487L85.122 8.88286H84.8146H84.5071Z" stroke="white" stroke-width="0.25"/>
<path d="M103.793 5.79434V5.45117V5.10801H106.396H109V5.45117V5.79434L108.747 5.79483C108.461 5.79537 108.076 5.95495 107.906 6.14388C107.746 6.31993 107.612 6.66599 107.554 7.04715C107.519 7.28144 107.507 10.0708 107.516 15.9913C107.529 24.0174 107.535 24.6118 107.613 24.8444C107.806 25.416 108.22 25.7457 108.747 25.7466L109 25.7471V26.0903V26.4335H106.396H103.793V26.0903V25.7471L104.046 25.7466C104.356 25.7461 104.733 25.5789 104.912 25.3627C104.982 25.2784 105.089 25.0822 105.151 24.9268L105.263 24.6441V15.7707V6.89738L105.151 6.61471C105.089 6.45926 104.982 6.26311 104.912 6.17879C104.733 5.96255 104.356 5.79542 104.046 5.79483L103.793 5.79434Z" stroke="white" stroke-width="0.25"/>
<path d="M1.02411 6.26007L1.00969 5.92298C0.997107 5.62815 1.00516 5.58977 1.07391 5.61658C1.11716 5.63345 4.49201 5.64727 8.5736 5.64727H15.9946V7.63563C15.9946 8.72921 15.9764 9.61253 15.954 9.59851C15.9317 9.58449 15.6786 9.18058 15.3915 8.70093C14.7442 7.61936 14.4714 7.32056 13.9942 7.17074C13.6772 7.07118 13.5828 7.06897 9.64342 7.06897H5.61662L5.64318 9.58145C5.65779 10.9633 5.69347 12.2704 5.72245 12.4861C5.79491 13.0261 5.98796 13.6965 6.17296 14.051C6.50193 14.6813 7.1992 15.2713 7.99912 15.5961L8.36873 15.7462H11.0728H13.7768V16.1384V16.5306H11.1021H8.42751L8.05259 16.6808C7.27374 16.9929 6.69849 17.4319 6.33703 17.9903C5.74221 18.909 5.62978 19.7536 5.629 23.3082L5.62857 25.2569H9.55148C12.0035 25.2569 13.5711 25.2382 13.7324 25.2071C14.4018 25.0781 14.6363 24.8546 15.3478 23.667C15.6638 23.1397 15.9386 22.7081 15.9585 22.7079C15.9784 22.7078 15.9946 23.6011 15.9946 24.6931V26.6786H8.49732H1V26.3621V26.0457L1.1567 26.0198C2.06679 25.8692 2.31982 25.7912 2.64329 25.5613C2.98185 25.3209 3.19192 25.0317 3.32017 24.6298C3.41771 24.324 3.42749 24.1652 3.4596 22.3645C3.49273 20.5111 3.49938 20.408 3.61553 19.9618C3.68221 19.7053 3.80241 19.3484 3.88254 19.1687C4.4505 17.8951 5.63161 16.824 7.08662 16.263C7.33107 16.1688 7.37007 16.1398 7.29196 16.1103C6.24923 15.7165 5.53962 15.2745 4.90246 14.6219C4.22173 13.9246 3.80197 13.1501 3.57247 12.1675C3.51611 11.9262 3.48887 11.3784 3.46038 9.91236C3.43516 8.61401 3.4031 7.9113 3.36308 7.77982C3.09617 6.90297 2.43654 6.41425 1.36161 6.29693L1.02411 6.26007Z" stroke="white" stroke-width="0.25"/>
<path d="M41.283 6.25507L41.2691 5.93891L41.2551 5.62276L48.7302 5.63531L56.2054 5.6479V7.64285C56.2054 8.7401 56.187 9.61689 56.1647 9.59125C56.1423 9.56566 55.8705 9.1218 55.5607 8.60494C54.9636 7.60858 54.8086 7.42758 54.3754 7.22099L54.108 7.09348L50.0055 7.08015L45.9031 7.06686L45.8728 8.4038C45.8402 9.84535 45.8986 12.0857 45.9832 12.6363C46.1317 13.6028 46.407 14.2182 46.925 14.7412C47.295 15.1148 47.6009 15.3178 48.1847 15.5769L48.5634 15.745L51.2996 15.7456L54.0357 15.7462V15.9852C54.0357 16.1167 54.0222 16.2931 54.0056 16.3774L53.9754 16.5306H51.3308H48.6861L48.3685 16.6522C47.5714 16.9572 46.9164 17.4501 46.5384 18.029C46.3122 18.3756 46.1008 18.9644 46.0066 19.5102C45.9044 20.1029 45.8377 22.3111 45.8733 23.921L45.903 25.2569H49.794C52.2061 25.2569 53.7824 25.2381 53.9412 25.2075C54.2909 25.1401 54.6522 24.962 54.8588 24.7551C54.9536 24.6604 55.2861 24.1609 55.5977 23.6452C55.9094 23.1295 56.1736 22.7076 56.1849 22.7076C56.1962 22.7076 56.2054 23.6011 56.2054 24.6931V26.6786H48.7321H41.2589V26.3652C41.2589 26.0283 41.2854 25.9931 41.5401 25.9914C41.7706 25.9899 42.3219 25.8513 42.5853 25.7287C42.8911 25.5863 43.246 25.2666 43.4058 24.9894C43.628 24.6038 43.6681 24.268 43.6694 22.7812C43.6713 20.5999 43.768 19.9139 44.2024 18.9973C44.7784 17.782 46.01 16.7195 47.3995 16.2392L47.634 16.1582L47.279 16.0184C45.9307 15.4873 44.805 14.5175 44.2602 13.4176C43.7663 12.4205 43.7164 12.1096 43.6736 9.76529C43.6407 7.96375 43.6342 7.86497 43.5298 7.59441C43.2471 6.86135 42.6678 6.45779 41.6933 6.31513L41.283 6.25507Z" stroke="white" stroke-width="0.25"/>
<path d="M19.8492 12.8539C20.1828 11.5573 20.9953 10.5605 22.2351 9.92653C23.2348 9.41534 24.3066 9.20002 25.4205 9.17788C23.9571 9.89703 22.5733 10.7099 22.062 12.3657C21.8673 12.9962 21.875 13.8096 22.0801 14.4362C22.4535 15.5769 23.3761 16.4951 25.2277 17.5686C25.4398 17.6916 26.0799 18.0407 26.65 18.3444C29.0802 19.6391 30.2903 20.4691 31.3051 21.5374C32.7515 23.0602 33.163 24.6134 32.6572 26.6409C32.0833 28.9411 30.0475 30.5342 27.1869 30.9214C24.2126 31.3239 21.5161 30.1498 19.3696 28.1096V23.0508H19.9919C20.106 23.4687 20.1933 23.8908 20.3116 24.3098C20.8334 26.1585 21.5113 27.4739 22.4313 28.4227C23.0604 29.0716 23.6273 29.4329 24.41 29.6838C25.1507 29.9212 25.9041 29.9703 26.7794 29.8382C29.2755 29.4613 30.6516 28.036 30.5398 25.9432C30.5061 25.3124 30.374 24.7733 30.1217 24.2365C29.4541 22.8167 28.1751 21.6847 25.6405 20.2708C25.1748 20.011 24.49 19.6233 24.1188 19.4094C21.5164 17.9094 20.1806 16.5499 19.7983 15.0126C19.6626 14.4671 19.6856 13.4894 19.8492 12.8539Z" stroke="white" stroke-width="0.25"/>
</svg>